<svg xmlns="http://www.w3.org/2000/svg" viewBox="0 0 512 512">
  <defs>
    <linearGradient id="bg" x1="84" y1="56" x2="428" y2="456" gradientUnits="userSpaceOnUse">
      <stop stop-color="#052E2B"/>
      <stop offset=".48" stop-color="#047857"/>
      <stop offset="1" stop-color="#22C55E"/>
    </linearGradient>
  </defs>
  <rect width="512" height="512" rx="116" fill="#020817"/>
  <rect x="36" y="36" width="440" height="440" rx="100" fill="url(#bg)"/>
  <path d="M256 76l44 126 126 44-126 44-44 126-44-126-126-44 126-44 44-126Z" fill="#F8FAFC"/>
  <path d="M256 156l24 66 66 24-66 24-24 66-24-66-66-24 66-24 24-66Z" fill="#22C55E"/>
  <circle cx="124" cy="380" r="32" fill="#BBF7D0"/>
  <circle cx="392" cy="140" r="26" fill="#BBF7D0"/>
  <path d="M164 362c64 36 136 36 200 0" stroke="#DCFCE7" stroke-width="32" stroke-linecap="round"/>
</svg>
